<svg xmlns="http://www.w3.org/2000/svg" width="800" height="450" viewBox="0 0 800 450">
  <defs>
    <linearGradient id="bg" x1="0%" y1="0%" x2="100%" y2="100%">
      <stop offset="0%" style="stop-color:#e8f0ec"/>
      <stop offset="100%" style="stop-color:#f5faf7"/>
    </linearGradient>
  </defs>
  <rect width="800" height="450" fill="url(#bg)"/>
  <!-- Factory silhouette -->
  <rect x="100" y="180" width="140" height="200" rx="8" fill="white" stroke="#659287" stroke-width="2"/>
  <rect x="260" y="130" width="140" height="250" rx="8" fill="white" stroke="#659287" stroke-width="2"/>
  <rect x="420" y="200" width="100" height="180" rx="8" fill="white" stroke="#659287" stroke-width="2"/>
  <rect x="540" y="150" width="130" height="230" rx="8" fill="white" stroke="#659287" stroke-width="2"/>
  <!-- Windows -->
  <rect x="130" y="210" width="30" height="30" rx="4" fill="#659287" opacity="0.3"/>
  <rect x="180" y="210" width="30" height="30" rx="4" fill="#659287" opacity="0.3"/>
  <rect x="130" y="270" width="30" height="30" rx="4" fill="#659287" opacity="0.3"/>
  <rect x="180" y="270" width="30" height="30" rx="4" fill="#659287" opacity="0.3"/>
  <rect x="290" y="160" width="30" height="30" rx="4" fill="#659287" opacity="0.3"/>
  <rect x="340" y="160" width="30" height="30" rx="4" fill="#659287" opacity="0.3"/>
  <rect x="575" y="180" width="25" height="25" rx="4" fill="#659287" opacity="0.3"/>
  <rect x="615" y="180" width="25" height="25" rx="4" fill="#659287" opacity="0.3"/>
  <!-- Text -->
  <text x="400" y="420" font-family="Arial,sans-serif" font-size="14" font-weight="600" fill="#659287" text-anchor="middle" opacity="0.6">Fasilitas Produksi</text>
</svg>
